<?xml version="1.0" encoding="UTF-8"?>
<!DOCTYPE svg PUBLIC "-//W3C//DTD SVG 1.1//EN" "http://www.w3.org/Graphics/SVG/1.1/DTD/svg11.dtd">
<!-- Creator: CorelDRAW -->
<svg xmlns="http://www.w3.org/2000/svg" xml:space="preserve" width="25.4mm" height="22.86mm" version="1.1" style="shape-rendering:geometricPrecision; text-rendering:geometricPrecision; image-rendering:optimizeQuality; fill-rule:evenodd; clip-rule:evenodd"
viewBox="0 0 2540 2286"
 xmlns:xlink="http://www.w3.org/1999/xlink"
 xmlns:xodm="http://www.corel.com/coreldraw/odm/2003">
 <defs>
  <style type="text/css">
   <![CDATA[
    .fil1 {fill:#1F2847}
    .fil2 {fill:#BE1E2C}
    .fil0 {fill:#E4C982}
   ]]>
  </style>
 </defs>
 <g id="Layer_x0020_1">
  <metadata id="CorelCorpID_0Corel-Layer"/>
  <g id="_2282240731840">
   <path class="fil0" d="M293.26 1109.47c0,178.56 21.34,310.5 91.84,453.63 170.49,346.13 493,557.62 888.76,557.62 269.97,0 508.66,-107.23 687.96,-286.52 43.06,-43.06 75.47,-77.26 110.07,-128.95 67.29,-100.54 124.76,-216.96 150.43,-339.87 199.14,-953.39 -864.01,-1542.03 -1571.01,-982.64 -71,56.17 -121.3,112.87 -176.01,185.59 -104.83,139.33 -182.04,357.33 -182.04,541.14z"/>
   <path class="fil1" d="M1170.07 255.54c-274.37,37.41 -456.27,162.74 -582.8,308.31 -131.44,151.21 -233.41,399.18 -207.21,673.68 43.95,460.47 465.31,852.48 990.16,794.75 456.95,-50.26 843.67,-463.61 787.96,-984.81 -23.84,-223.09 -110.79,-378.78 -251.54,-527.86 -55.82,-59.11 -113.36,-106.36 -188.17,-149.1 -160.64,-91.77 -357.22,-141.04 -548.4,-114.97z"/>
   <path class="fil0" d="M1158.42 280.04c-485.4,66.61 -813.93,500.42 -753.5,975.57 56.16,441.55 461.77,815.37 971.14,752.9 190.21,-23.32 382.29,-117.08 510.76,-249.27 185.34,-190.7 280.26,-451.76 246.91,-724.18 -53.79,-439.41 -464.41,-825.11 -975.31,-755.02z"/>
   <path class="fil1" d="M669.03 1140.12c20.9,26.82 48.55,53.62 73.17,77.96 72.6,71.78 496.72,515.14 525.53,530.02 52.52,-44.53 100.54,-102.39 150,-151.59 51.64,-51.35 98.52,-98.58 150.17,-150.1l226.67 -226.86c24.6,-25.15 55.29,-52.78 75.7,-79.43 -10.1,-15.51 -128.19,-138.76 -149.01,-145.32 -77.13,60.8 -410.22,430.84 -456.2,448.68 -14.94,-25.7 -179.29,-184.6 -217.62,-224.02 -23,-23.66 -59.59,-53.64 -74.13,-79.34 73.4,-77.42 145.39,-152 220.6,-227.03l165.1 -165.87c19.09,-21.89 43.95,-36.91 56.67,-60.63 -15.07,-27.66 -48.43,-52.42 -71.89,-76.09l-54.63 -55.35c-16.29,-15.1 -4.26,-7.59 -24.86,-17.11l-518.93 520.99c-11.91,11.73 -22.74,23.29 -36.34,36.71 -7.51,7.41 -11.35,10.64 -19.05,18.19 -0.67,0.66 -9.4,9.54 -9.45,9.6 -13.11,15.57 -2.42,-0.29 -11.5,16.59z"/>
   <path class="fil2" d="M1196.88 1066.57l143.75 145.17c65.52,-55.34 155.79,-153.67 220.15,-219.61 22.74,-23.29 59.78,-54.75 76.3,-78.78 -12.54,-20.33 -132.76,-139.42 -149.56,-147.52 -43.92,60.05 -263.08,263.74 -290.64,300.74z"/>
  </g>
 </g>
</svg>
